<?xml version="1.0" encoding="UTF-8" standalone="no"?>
<!DOCTYPE svg PUBLIC "-//W3C//DTD SVG 1.1//EN" "http://www.w3.org/Graphics/SVG/1.1/DTD/svg11.dtd">
<svg width="100%" height="100%" viewBox="0 0 2481 3508" version="1.1" xmlns="http://www.w3.org/2000/svg" xmlns:xlink="http://www.w3.org/1999/xlink" xml:space="preserve" style="fill-rule:evenodd;clip-rule:evenodd;stroke-miterlimit:10;">
    <g transform="matrix(1,0,0,1,315.356,12.1177)">
        <text x="277.336px" y="326.619px" style="font-family:'TGL0-16', 'TGL 0-16', sans-serif;font-size:150px;">Christoph Kummer</text>
    </g>
    <g transform="matrix(1,0,0,1,334.325,-34.0455)">
        <text x="284.297px" y="575.502px" style="font-family:'TGL31034-2', 'TGL 31034-2';font-size:125px;">UNIX Systems Engineer</text>
    </g>
    <g transform="matrix(-1,0,0,1,1825.26,-169.243)">
        <text x="290.71px" y="820.124px" style="font-family:'TGL31034-2', 'TGL 31034-2';font-size:125px;">Reverse-Engineer</text>
    </g>
    <g transform="matrix(1,0,0,1,336.121,29.5351)">
        <text x="293.469px" y="633.979px" style="font-family:'TGL31034-2', 'TGL 31034-2';font-size:125px;">+</text>
    </g>
    <g transform="matrix(0.924662,0,0,0.833392,1167.57,-377.645)">
        <path d="M626.575,1079.88L626.575,1064.88" style="fill:none;stroke:black;stroke-width:10.73px;"/>
    </g>
    <g transform="matrix(0.924662,0,0,0.833392,1167.57,-377.645)">
        <path d="M626.575,1064.88L611.575,1049.88" style="fill:none;stroke:black;stroke-width:10.73px;"/>
    </g>
    <g transform="matrix(0.924662,0,0,0.833392,1167.57,-377.645)">
        <path d="M611.575,1049.88L551.575,1049.88" style="fill:none;stroke:black;stroke-width:10.73px;"/>
    </g>
    <g transform="matrix(0.924662,0,0,0.833392,1167.57,-377.645)">
        <path d="M551.575,1049.88L536.575,1064.88" style="fill:none;stroke:black;stroke-width:10.73px;"/>
    </g>
    <g transform="matrix(0.924662,0,0,0.833392,1167.57,-377.645)">
        <path d="M536.575,1064.88L536.575,1184.88" style="fill:none;stroke:black;stroke-width:10.73px;"/>
    </g>
    <g transform="matrix(0.924662,0,0,0.833392,1167.57,-377.645)">
        <path d="M536.575,1184.88L551.575,1199.88" style="fill:none;stroke:black;stroke-width:10.73px;"/>
    </g>
    <g transform="matrix(0.924662,0,0,0.833392,1167.57,-377.645)">
        <path d="M551.575,1199.88L611.575,1199.88" style="fill:none;stroke:black;stroke-width:10.73px;"/>
    </g>
    <g transform="matrix(0.924662,0,0,0.833392,1167.57,-377.645)">
        <path d="M611.575,1199.88L626.575,1184.88" style="fill:none;stroke:black;stroke-width:10.73px;"/>
    </g>
    <g transform="matrix(0.924662,0,0,0.833392,1167.57,-377.645)">
        <path d="M626.575,1184.88L626.575,1169.88" style="fill:none;stroke:black;stroke-width:10.73px;"/>
    </g>
    <g transform="matrix(0.924662,0,0,0.833392,1167.57,-377.645)">
        <path d="M631.299,1079.88C631.299,1082.49 629.184,1084.61 626.575,1084.61C623.966,1084.61 621.85,1082.49 621.85,1079.88C621.85,1077.27 623.966,1075.16 626.575,1075.16C629.184,1075.16 631.299,1077.27 631.299,1079.88Z" style="fill-rule:nonzero;"/>
    </g>
    <g transform="matrix(0.924662,0,0,0.833392,1167.57,-377.645)">
        <path d="M631.299,1064.88C631.299,1067.49 629.184,1069.61 626.575,1069.61C623.966,1069.61 621.85,1067.49 621.85,1064.88C621.85,1062.27 623.966,1060.16 626.575,1060.16C629.184,1060.16 631.299,1062.27 631.299,1064.88Z" style="fill-rule:nonzero;"/>
    </g>
    <g transform="matrix(0.924662,0,0,0.833392,1167.57,-377.645)">
        <path d="M631.299,1064.88C631.299,1067.49 629.184,1069.61 626.575,1069.61C623.966,1069.61 621.85,1067.49 621.85,1064.88C621.85,1062.27 623.966,1060.16 626.575,1060.16C629.184,1060.16 631.299,1062.27 631.299,1064.88Z" style="fill-rule:nonzero;"/>
    </g>
    <g transform="matrix(0.924662,0,0,0.833392,1167.57,-377.645)">
        <path d="M631.299,1064.88C631.299,1067.49 629.184,1069.61 626.575,1069.61C623.966,1069.61 621.85,1067.49 621.85,1064.88C621.85,1062.27 623.966,1060.16 626.575,1060.16C629.184,1060.16 631.299,1062.27 631.299,1064.88Z" style="fill-rule:nonzero;"/>
    </g>
    <g transform="matrix(0.924662,0,0,0.833392,1167.57,-377.645)">
        <path d="M616.299,1049.88C616.299,1052.49 614.184,1054.61 611.575,1054.61C608.966,1054.61 606.85,1052.49 606.85,1049.88C606.85,1047.27 608.966,1045.16 611.575,1045.16C614.184,1045.16 616.299,1047.27 616.299,1049.88Z" style="fill-rule:nonzero;"/>
    </g>
    <g transform="matrix(0.924662,0,0,0.833392,1167.57,-377.645)">
        <path d="M556.299,1049.88C556.299,1052.49 554.184,1054.61 551.575,1054.61C548.966,1054.61 546.85,1052.49 546.85,1049.88C546.85,1047.27 548.966,1045.16 551.575,1045.16C554.184,1045.16 556.299,1047.27 556.299,1049.88Z" style="fill-rule:nonzero;"/>
    </g>
    <g transform="matrix(0.924662,0,0,0.833392,1167.57,-377.645)">
        <path d="M556.299,1049.88C556.299,1052.49 554.184,1054.61 551.575,1054.61C548.966,1054.61 546.85,1052.49 546.85,1049.88C546.85,1047.27 548.966,1045.16 551.575,1045.16C554.184,1045.16 556.299,1047.27 556.299,1049.88Z" style="fill-rule:nonzero;"/>
    </g>
    <g transform="matrix(0.924662,0,0,0.833392,1167.57,-377.645)">
        <path d="M556.299,1049.88C556.299,1052.49 554.184,1054.61 551.575,1054.61C548.966,1054.61 546.85,1052.49 546.85,1049.88C546.85,1047.27 548.966,1045.16 551.575,1045.16C554.184,1045.16 556.299,1047.27 556.299,1049.88Z" style="fill-rule:nonzero;"/>
    </g>
    <g transform="matrix(0.924662,0,0,0.833392,1167.57,-377.645)">
        <path d="M541.299,1064.88C541.299,1067.49 539.184,1069.61 536.575,1069.61C533.966,1069.61 531.85,1067.49 531.85,1064.88C531.85,1062.27 533.966,1060.16 536.575,1060.16C539.184,1060.16 541.299,1062.27 541.299,1064.88Z" style="fill-rule:nonzero;"/>
    </g>
    <g transform="matrix(0.924662,0,0,0.833392,1167.57,-377.645)">
        <path d="M541.299,1184.88C541.299,1187.49 539.184,1189.61 536.575,1189.61C533.966,1189.61 531.85,1187.49 531.85,1184.88C531.85,1182.27 533.966,1180.16 536.575,1180.16C539.184,1180.16 541.299,1182.27 541.299,1184.88Z" style="fill-rule:nonzero;"/>
    </g>
    <g transform="matrix(0.924662,0,0,0.833392,1167.57,-377.645)">
        <path d="M541.299,1184.88C541.299,1187.49 539.184,1189.61 536.575,1189.61C533.966,1189.61 531.85,1187.49 531.85,1184.88C531.85,1182.27 533.966,1180.16 536.575,1180.16C539.184,1180.16 541.299,1182.27 541.299,1184.88Z" style="fill-rule:nonzero;"/>
    </g>
    <g transform="matrix(0.924662,0,0,0.833392,1167.57,-377.645)">
        <path d="M541.299,1184.88C541.299,1187.49 539.184,1189.61 536.575,1189.61C533.966,1189.61 531.85,1187.49 531.85,1184.88C531.85,1182.27 533.966,1180.16 536.575,1180.16C539.184,1180.16 541.299,1182.27 541.299,1184.88Z" style="fill-rule:nonzero;"/>
    </g>
    <g transform="matrix(0.924662,0,0,0.833392,1167.57,-377.645)">
        <path d="M556.299,1199.88C556.299,1202.49 554.184,1204.61 551.575,1204.61C548.966,1204.61 546.85,1202.49 546.85,1199.88C546.85,1197.27 548.966,1195.16 551.575,1195.16C554.184,1195.16 556.299,1197.27 556.299,1199.88Z" style="fill-rule:nonzero;"/>
    </g>
    <g transform="matrix(0.924662,0,0,0.833392,1167.57,-377.645)">
        <path d="M616.299,1199.88C616.299,1202.49 614.184,1204.61 611.575,1204.61C608.966,1204.61 606.85,1202.49 606.85,1199.88C606.85,1197.27 608.966,1195.16 611.575,1195.16C614.184,1195.16 616.299,1197.27 616.299,1199.88Z" style="fill-rule:nonzero;"/>
    </g>
    <g transform="matrix(0.924662,0,0,0.833392,1167.57,-377.645)">
        <path d="M616.299,1199.88C616.299,1202.49 614.184,1204.61 611.575,1204.61C608.966,1204.61 606.85,1202.49 606.85,1199.88C606.85,1197.27 608.966,1195.16 611.575,1195.16C614.184,1195.16 616.299,1197.27 616.299,1199.88Z" style="fill-rule:nonzero;"/>
    </g>
    <g transform="matrix(0.924662,0,0,0.833392,1167.57,-377.645)">
        <path d="M616.299,1199.88C616.299,1202.49 614.184,1204.61 611.575,1204.61C608.966,1204.61 606.85,1202.49 606.85,1199.88C606.85,1197.27 608.966,1195.16 611.575,1195.16C614.184,1195.16 616.299,1197.27 616.299,1199.88Z" style="fill-rule:nonzero;"/>
    </g>
    <g transform="matrix(0.924662,0,0,0.833392,1167.57,-377.645)">
        <path d="M631.299,1184.88C631.299,1187.49 629.184,1189.61 626.575,1189.61C623.966,1189.61 621.85,1187.49 621.85,1184.88C621.85,1182.27 623.966,1180.16 626.575,1180.16C629.184,1180.16 631.299,1182.27 631.299,1184.88Z" style="fill-rule:nonzero;"/>
    </g>
    <g transform="matrix(0.924662,0,0,0.833392,1167.57,-377.645)">
        <path d="M631.299,1169.88C631.299,1172.49 629.184,1174.61 626.575,1174.61C623.966,1174.61 621.85,1172.49 621.85,1169.88C621.85,1167.27 623.966,1165.16 626.575,1165.16C629.184,1165.16 631.299,1167.27 631.299,1169.88Z" style="fill-rule:nonzero;"/>
    </g>
    <g transform="matrix(0.924662,0,0,0.833392,1167.57,-377.645)">
        <path d="M631.299,1169.88C631.299,1172.49 629.184,1174.61 626.575,1174.61C623.966,1174.61 621.85,1172.49 621.85,1169.88C621.85,1167.27 623.966,1165.16 626.575,1165.16C629.184,1165.16 631.299,1167.27 631.299,1169.88Z" style="fill-rule:nonzero;"/>
    </g>
    <g transform="matrix(0.924662,0,0,0.833392,1167.57,-377.645)">
        <path d="M626.575,1169.88L626.575,1184.88" style="fill:none;stroke:black;stroke-width:10.73px;"/>
    </g>
    <g transform="matrix(0.924662,0,0,0.833392,1167.57,-377.645)">
        <path d="M626.575,1184.88L641.575,1199.88" style="fill:none;stroke:black;stroke-width:10.73px;"/>
    </g>
    <g transform="matrix(0.924662,0,0,0.833392,1167.57,-377.645)">
        <path d="M641.575,1199.88L656.575,1184.88" style="fill:none;stroke:black;stroke-width:10.73px;"/>
    </g>
    <g transform="matrix(0.924662,0,0,0.833392,1167.57,-377.645)">
        <path d="M656.575,1184.88L656.575,1049.88" style="fill:none;stroke:black;stroke-width:10.73px;"/>
    </g>
    <g transform="matrix(0.924662,0,0,0.833392,1167.57,-377.645)">
        <path d="M656.575,1049.88L626.575,1019.88" style="fill:none;stroke:black;stroke-width:10.73px;"/>
    </g>
    <g transform="matrix(0.924662,0,0,0.833392,1167.57,-377.645)">
        <path d="M626.575,1019.88L536.575,1019.88" style="fill:none;stroke:black;stroke-width:10.73px;"/>
    </g>
    <g transform="matrix(0.924662,0,0,0.833392,1167.57,-377.645)">
        <path d="M536.575,1019.88L506.575,1049.88" style="fill:none;stroke:black;stroke-width:10.73px;"/>
    </g>
    <g transform="matrix(0.924662,0,0,0.833392,1167.57,-377.645)">
        <path d="M506.575,1049.88L506.575,1199.88" style="fill:none;stroke:black;stroke-width:10.73px;"/>
    </g>
    <g transform="matrix(0.924662,0,0,0.833392,1167.57,-377.645)">
        <path d="M506.575,1199.88L536.575,1229.88" style="fill:none;stroke:black;stroke-width:10.73px;"/>
    </g>
    <g transform="matrix(0.924662,0,0,0.833392,1167.57,-377.645)">
        <path d="M536.575,1229.88L611.575,1229.88" style="fill:none;stroke:black;stroke-width:10.73px;"/>
    </g>
    <g transform="matrix(0.924662,0,0,0.833392,1167.57,-377.645)">
        <path d="M631.299,1169.88C631.299,1172.49 629.184,1174.61 626.575,1174.61C623.966,1174.61 621.85,1172.49 621.85,1169.88C621.85,1167.27 623.966,1165.16 626.575,1165.16C629.184,1165.16 631.299,1167.27 631.299,1169.88Z" style="fill-rule:nonzero;"/>
    </g>
    <g transform="matrix(0.924662,0,0,0.833392,1167.57,-377.645)">
        <path d="M631.299,1184.88C631.299,1187.49 629.184,1189.61 626.575,1189.61C623.966,1189.61 621.85,1187.49 621.85,1184.88C621.85,1182.27 623.966,1180.16 626.575,1180.16C629.184,1180.16 631.299,1182.27 631.299,1184.88Z" style="fill-rule:nonzero;"/>
    </g>
    <g transform="matrix(0.924662,0,0,0.833392,1167.57,-377.645)">
        <path d="M631.299,1184.88C631.299,1187.49 629.184,1189.61 626.575,1189.61C623.966,1189.61 621.85,1187.49 621.85,1184.88C621.85,1182.27 623.966,1180.16 626.575,1180.16C629.184,1180.16 631.299,1182.27 631.299,1184.88Z" style="fill-rule:nonzero;"/>
    </g>
    <g transform="matrix(0.924662,0,0,0.833392,1167.57,-377.645)">
        <path d="M631.299,1184.88C631.299,1187.49 629.184,1189.61 626.575,1189.61C623.966,1189.61 621.85,1187.49 621.85,1184.88C621.85,1182.27 623.966,1180.16 626.575,1180.16C629.184,1180.16 631.299,1182.27 631.299,1184.88Z" style="fill-rule:nonzero;"/>
    </g>
    <g transform="matrix(0.924662,0,0,0.833392,1167.57,-377.645)">
        <path d="M646.299,1199.88C646.299,1202.49 644.184,1204.61 641.575,1204.61C638.966,1204.61 636.85,1202.49 636.85,1199.88C636.85,1197.27 638.966,1195.16 641.575,1195.16C644.184,1195.16 646.299,1197.27 646.299,1199.88Z" style="fill-rule:nonzero;"/>
    </g>
    <g transform="matrix(0.924662,0,0,0.833392,1167.57,-377.645)">
        <path d="M646.299,1199.88C646.299,1202.49 644.184,1204.61 641.575,1204.61C638.966,1204.61 636.85,1202.49 636.85,1199.88C636.85,1197.27 638.966,1195.16 641.575,1195.16C644.184,1195.16 646.299,1197.27 646.299,1199.88Z" style="fill-rule:nonzero;"/>
    </g>
    <g transform="matrix(0.924662,0,0,0.833392,1167.57,-377.645)">
        <path d="M661.299,1184.88C661.299,1187.49 659.184,1189.61 656.575,1189.61C653.966,1189.61 651.85,1187.49 651.85,1184.88C651.85,1182.27 653.966,1180.16 656.575,1180.16C659.184,1180.16 661.299,1182.27 661.299,1184.88Z" style="fill-rule:nonzero;"/>
    </g>
    <g transform="matrix(0.924662,0,0,0.833392,1167.57,-377.645)">
        <path d="M661.299,1049.88C661.299,1052.49 659.184,1054.61 656.575,1054.61C653.966,1054.61 651.85,1052.49 651.85,1049.88C651.85,1047.27 653.966,1045.16 656.575,1045.16C659.184,1045.16 661.299,1047.27 661.299,1049.88Z" style="fill-rule:nonzero;"/>
    </g>
    <g transform="matrix(0.924662,0,0,0.833392,1167.57,-377.645)">
        <path d="M661.299,1049.88C661.299,1052.49 659.184,1054.61 656.575,1054.61C653.966,1054.61 651.85,1052.49 651.85,1049.88C651.85,1047.27 653.966,1045.16 656.575,1045.16C659.184,1045.16 661.299,1047.27 661.299,1049.88Z" style="fill-rule:nonzero;"/>
    </g>
    <g transform="matrix(0.924662,0,0,0.833392,1167.57,-377.645)">
        <path d="M661.299,1049.88C661.299,1052.49 659.184,1054.61 656.575,1054.61C653.966,1054.61 651.85,1052.49 651.85,1049.88C651.85,1047.27 653.966,1045.16 656.575,1045.16C659.184,1045.16 661.299,1047.27 661.299,1049.88Z" style="fill-rule:nonzero;"/>
    </g>
    <g transform="matrix(0.924662,0,0,0.833392,1167.57,-377.645)">
        <path d="M631.299,1019.88C631.299,1022.49 629.184,1024.61 626.575,1024.61C623.966,1024.61 621.85,1022.49 621.85,1019.88C621.85,1017.27 623.966,1015.16 626.575,1015.16C629.184,1015.16 631.299,1017.27 631.299,1019.88Z" style="fill-rule:nonzero;"/>
    </g>
    <g transform="matrix(0.924662,0,0,0.833392,1167.57,-377.645)">
        <path d="M541.299,1019.88C541.299,1022.49 539.184,1024.61 536.575,1024.61C533.966,1024.61 531.85,1022.49 531.85,1019.88C531.85,1017.27 533.966,1015.16 536.575,1015.16C539.184,1015.16 541.299,1017.27 541.299,1019.88Z" style="fill-rule:nonzero;"/>
    </g>
    <g transform="matrix(0.924662,0,0,0.833392,1167.57,-377.645)">
        <path d="M541.299,1019.88C541.299,1022.49 539.184,1024.61 536.575,1024.61C533.966,1024.61 531.85,1022.49 531.85,1019.88C531.85,1017.27 533.966,1015.16 536.575,1015.16C539.184,1015.16 541.299,1017.27 541.299,1019.88Z" style="fill-rule:nonzero;"/>
    </g>
    <g transform="matrix(0.924662,0,0,0.833392,1167.57,-377.645)">
        <path d="M541.299,1019.88C541.299,1022.49 539.184,1024.61 536.575,1024.61C533.966,1024.61 531.85,1022.49 531.85,1019.88C531.85,1017.27 533.966,1015.16 536.575,1015.16C539.184,1015.16 541.299,1017.27 541.299,1019.88Z" style="fill-rule:nonzero;"/>
    </g>
    <g transform="matrix(0.924662,0,0,0.833392,1167.57,-377.645)">
        <path d="M511.299,1049.88C511.299,1052.49 509.184,1054.61 506.575,1054.61C503.966,1054.61 501.85,1052.49 501.85,1049.88C501.85,1047.27 503.966,1045.16 506.575,1045.16C509.184,1045.16 511.299,1047.27 511.299,1049.88Z" style="fill-rule:nonzero;"/>
    </g>
    <g transform="matrix(0.924662,0,0,0.833392,1167.57,-377.645)">
        <path d="M511.299,1199.88C511.299,1202.49 509.184,1204.61 506.575,1204.61C503.966,1204.61 501.85,1202.49 501.85,1199.88C501.85,1197.27 503.966,1195.16 506.575,1195.16C509.184,1195.16 511.299,1197.27 511.299,1199.88Z" style="fill-rule:nonzero;"/>
    </g>
    <g transform="matrix(0.924662,0,0,0.833392,1167.57,-377.645)">
        <path d="M511.299,1199.88C511.299,1202.49 509.184,1204.61 506.575,1204.61C503.966,1204.61 501.85,1202.49 501.85,1199.88C501.85,1197.27 503.966,1195.16 506.575,1195.16C509.184,1195.16 511.299,1197.27 511.299,1199.88Z" style="fill-rule:nonzero;"/>
    </g>
    <g transform="matrix(0.924662,0,0,0.833392,1167.57,-377.645)">
        <path d="M511.299,1199.88C511.299,1202.49 509.184,1204.61 506.575,1204.61C503.966,1204.61 501.85,1202.49 501.85,1199.88C501.85,1197.27 503.966,1195.16 506.575,1195.16C509.184,1195.16 511.299,1197.27 511.299,1199.88Z" style="fill-rule:nonzero;"/>
    </g>
    <g transform="matrix(0.924662,0,0,0.833392,1167.57,-377.645)">
        <path d="M541.299,1229.88C541.299,1232.49 539.184,1234.61 536.575,1234.61C533.966,1234.61 531.85,1232.49 531.85,1229.88C531.85,1227.27 533.966,1225.16 536.575,1225.16C539.184,1225.16 541.299,1227.27 541.299,1229.88Z" style="fill-rule:nonzero;"/>
    </g>
    <g transform="matrix(0.924662,0,0,0.833392,1167.57,-377.645)">
        <path d="M616.299,1229.88C616.299,1232.49 614.184,1234.61 611.575,1234.61C608.966,1234.61 606.85,1232.49 606.85,1229.88C606.85,1227.27 608.966,1225.16 611.575,1225.16C614.184,1225.16 616.299,1227.27 616.299,1229.88Z" style="fill-rule:nonzero;"/>
    </g>
    <g transform="matrix(0.924662,0,0,0.833392,1167.57,-377.645)">
        <path d="M616.299,1229.88C616.299,1232.49 614.184,1234.61 611.575,1234.61C608.966,1234.61 606.85,1232.49 606.85,1229.88C606.85,1227.27 608.966,1225.16 611.575,1225.16C614.184,1225.16 616.299,1227.27 616.299,1229.88Z" style="fill-rule:nonzero;"/>
    </g>
    <g transform="matrix(0.924662,0,0,0.833392,1167.57,-377.645)">
        <path d="M626.575,1079.88L626.575,1169.88" style="fill:none;stroke:black;stroke-width:10.73px;"/>
    </g>
    <g transform="matrix(0.924662,0,0,0.833392,1167.57,-377.645)">
        <path d="M631.299,1079.88C631.299,1082.49 629.184,1084.61 626.575,1084.61C623.966,1084.61 621.85,1082.49 621.85,1079.88C621.85,1077.27 623.966,1075.16 626.575,1075.16C629.184,1075.16 631.299,1077.27 631.299,1079.88Z" style="fill-rule:nonzero;"/>
    </g>
    <g transform="matrix(0.924662,0,0,0.833392,1167.57,-377.645)">
        <path d="M631.299,1169.88C631.299,1172.49 629.184,1174.61 626.575,1174.61C623.966,1174.61 621.85,1172.49 621.85,1169.88C621.85,1167.27 623.966,1165.16 626.575,1165.16C629.184,1165.16 631.299,1167.27 631.299,1169.88Z" style="fill-rule:nonzero;"/>
    </g>
    <g transform="matrix(0.924662,0,0,0.833392,1167.57,-377.645)">
        <path d="M631.299,1169.88C631.299,1172.49 629.184,1174.61 626.575,1174.61C623.966,1174.61 621.85,1172.49 621.85,1169.88C621.85,1167.27 623.966,1165.16 626.575,1165.16C629.184,1165.16 631.299,1167.27 631.299,1169.88Z" style="fill-rule:nonzero;"/>
    </g>
    <g transform="matrix(0.924662,0,0,0.833392,1167.57,-377.645)">
        <path d="M596.575,1229.88L626.575,1229.88" style="fill:none;stroke:black;stroke-width:10.73px;"/>
    </g>
    <g transform="matrix(0.924662,0,0,0.833392,1167.57,-377.645)">
        <path d="M601.299,1229.88C601.299,1232.49 599.184,1234.61 596.575,1234.61C593.966,1234.61 591.85,1232.49 591.85,1229.88C591.85,1227.27 593.966,1225.16 596.575,1225.16C599.184,1225.16 601.299,1227.27 601.299,1229.88Z" style="fill-rule:nonzero;"/>
    </g>
    <g transform="matrix(0.924662,0,0,0.833392,1167.57,-377.645)">
        <path d="M631.299,1229.88C631.299,1232.49 629.184,1234.61 626.575,1234.61C623.966,1234.61 621.85,1232.49 621.85,1229.88C621.85,1227.27 623.966,1225.16 626.575,1225.16C629.184,1225.16 631.299,1227.27 631.299,1229.88Z" style="fill-rule:nonzero;"/>
    </g>
    <g transform="matrix(0.924662,0,0,0.833392,1167.57,-377.645)">
        <path d="M631.299,1229.88C631.299,1232.49 629.184,1234.61 626.575,1234.61C623.966,1234.61 621.85,1232.49 621.85,1229.88C621.85,1227.27 623.966,1225.16 626.575,1225.16C629.184,1225.16 631.299,1227.27 631.299,1229.88Z" style="fill-rule:nonzero;"/>
    </g>
    <g transform="matrix(0.924662,0,0,0.833392,1167.57,-377.645)">
        <path d="M578.386,1079.88C578.386,1086.4 573.098,1091.69 566.575,1091.69C560.052,1091.69 554.764,1086.4 554.764,1079.88C554.764,1073.36 560.052,1068.07 566.575,1068.07C573.098,1068.07 578.386,1073.36 578.386,1079.88Z" style="fill-rule:nonzero;"/>
    </g>
    <g transform="matrix(0.924662,0,0,0.833392,1167.57,-377.645)">
        <path d="M571.299,1079.88C571.299,1082.49 569.184,1084.61 566.575,1084.61C563.966,1084.61 561.85,1082.49 561.85,1079.88C561.85,1077.27 563.966,1075.16 566.575,1075.16C569.184,1075.16 571.299,1077.27 571.299,1079.88Z" style="fill:white;fill-rule:nonzero;"/>
    </g>
    <g transform="matrix(0.924662,0,0,0.833392,1167.57,-377.645)">
        <path d="M578.386,1109.88C578.386,1116.4 573.098,1121.69 566.575,1121.69C560.052,1121.69 554.764,1116.4 554.764,1109.88C554.764,1103.36 560.052,1098.07 566.575,1098.07C573.098,1098.07 578.386,1103.36 578.386,1109.88Z" style="fill-rule:nonzero;"/>
    </g>
    <g transform="matrix(0.924662,0,0,0.833392,1167.57,-377.645)">
        <path d="M571.299,1109.88C571.299,1112.49 569.184,1114.61 566.575,1114.61C563.966,1114.61 561.85,1112.49 561.85,1109.88C561.85,1107.27 563.966,1105.16 566.575,1105.16C569.184,1105.16 571.299,1107.27 571.299,1109.88Z" style="fill:white;fill-rule:nonzero;"/>
    </g>
    <g transform="matrix(0.924662,0,0,0.833392,1167.57,-377.645)">
        <path d="M578.386,1139.88C578.386,1146.4 573.098,1151.69 566.575,1151.69C560.052,1151.69 554.764,1146.4 554.764,1139.88C554.764,1133.36 560.052,1128.07 566.575,1128.07C573.098,1128.07 578.386,1133.36 578.386,1139.88Z" style="fill-rule:nonzero;"/>
    </g>
    <g transform="matrix(0.924662,0,0,0.833392,1167.57,-377.645)">
        <path d="M571.299,1139.88C571.299,1142.49 569.184,1144.61 566.575,1144.61C563.966,1144.61 561.85,1142.49 561.85,1139.88C561.85,1137.27 563.966,1135.16 566.575,1135.16C569.184,1135.16 571.299,1137.27 571.299,1139.88Z" style="fill:white;fill-rule:nonzero;"/>
    </g>
    <g transform="matrix(0.924662,0,0,0.833392,1167.57,-377.645)">
        <path d="M578.386,1169.88C578.386,1176.4 573.098,1181.69 566.575,1181.69C560.052,1181.69 554.764,1176.4 554.764,1169.88C554.764,1163.36 560.052,1158.07 566.575,1158.07C573.098,1158.07 578.386,1163.36 578.386,1169.88Z" style="fill-rule:nonzero;"/>
    </g>
    <g transform="matrix(0.924662,0,0,0.833392,1167.57,-377.645)">
        <path d="M571.299,1169.88C571.299,1172.49 569.184,1174.61 566.575,1174.61C563.966,1174.61 561.85,1172.49 561.85,1169.88C561.85,1167.27 563.966,1165.16 566.575,1165.16C569.184,1165.16 571.299,1167.27 571.299,1169.88Z" style="fill:white;fill-rule:nonzero;"/>
    </g>
    <g transform="matrix(0.924662,0,0,0.833392,1167.57,-377.645)">
        <path d="M638.386,1169.88C638.386,1176.4 633.098,1181.69 626.575,1181.69C620.052,1181.69 614.764,1176.4 614.764,1169.88C614.764,1163.36 620.052,1158.07 626.575,1158.07C633.098,1158.07 638.386,1163.36 638.386,1169.88Z" style="fill-rule:nonzero;"/>
    </g>
    <g transform="matrix(0.924662,0,0,0.833392,1167.57,-377.645)">
        <path d="M631.299,1169.88C631.299,1172.49 629.184,1174.61 626.575,1174.61C623.966,1174.61 621.85,1172.49 621.85,1169.88C621.85,1167.27 623.966,1165.16 626.575,1165.16C629.184,1165.16 631.299,1167.27 631.299,1169.88Z" style="fill:white;fill-rule:nonzero;"/>
    </g>
    <g transform="matrix(0.924662,0,0,0.833392,1167.57,-377.645)">
        <path d="M638.386,1139.88C638.386,1146.4 633.098,1151.69 626.575,1151.69C620.052,1151.69 614.764,1146.4 614.764,1139.88C614.764,1133.36 620.052,1128.07 626.575,1128.07C633.098,1128.07 638.386,1133.36 638.386,1139.88Z" style="fill-rule:nonzero;"/>
    </g>
    <g transform="matrix(0.924662,0,0,0.833392,1167.57,-377.645)">
        <path d="M631.299,1139.88C631.299,1142.49 629.184,1144.61 626.575,1144.61C623.966,1144.61 621.85,1142.49 621.85,1139.88C621.85,1137.27 623.966,1135.16 626.575,1135.16C629.184,1135.16 631.299,1137.27 631.299,1139.88Z" style="fill:white;fill-rule:nonzero;"/>
    </g>
    <g transform="matrix(0.924662,0,0,0.833392,1167.57,-377.645)">
        <path d="M638.386,1109.88C638.386,1116.4 633.098,1121.69 626.575,1121.69C620.052,1121.69 614.764,1116.4 614.764,1109.88C614.764,1103.36 620.052,1098.07 626.575,1098.07C633.098,1098.07 638.386,1103.36 638.386,1109.88Z" style="fill-rule:nonzero;"/>
    </g>
    <g transform="matrix(0.924662,0,0,0.833392,1167.57,-377.645)">
        <path d="M631.299,1109.88C631.299,1112.49 629.184,1114.61 626.575,1114.61C623.966,1114.61 621.85,1112.49 621.85,1109.88C621.85,1107.27 623.966,1105.16 626.575,1105.16C629.184,1105.16 631.299,1107.27 631.299,1109.88Z" style="fill:white;fill-rule:nonzero;"/>
    </g>
    <g transform="matrix(0.924662,0,0,0.833392,1167.57,-377.645)">
        <path d="M638.386,1079.88C638.386,1086.4 633.098,1091.69 626.575,1091.69C620.052,1091.69 614.764,1086.4 614.764,1079.88C614.764,1073.36 620.052,1068.07 626.575,1068.07C633.098,1068.07 638.386,1073.36 638.386,1079.88Z" style="fill-rule:nonzero;"/>
    </g>
    <g transform="matrix(0.924662,0,0,0.833392,1167.57,-377.645)">
        <path d="M631.299,1079.88C631.299,1082.49 629.184,1084.61 626.575,1084.61C623.966,1084.61 621.85,1082.49 621.85,1079.88C621.85,1077.27 623.966,1075.16 626.575,1075.16C629.184,1075.16 631.299,1077.27 631.299,1079.88Z" style="fill:white;fill-rule:nonzero;"/>
    </g>
    <g transform="matrix(0.924662,0,0,0.833392,1167.57,-377.645)">
        <path d="M638.386,1229.88C638.386,1236.4 633.098,1241.69 626.575,1241.69C620.052,1241.69 614.764,1236.4 614.764,1229.88C614.764,1223.36 620.052,1218.07 626.575,1218.07C633.098,1218.07 638.386,1223.36 638.386,1229.88Z" style="fill-rule:nonzero;"/>
    </g>
    <g transform="matrix(0.924662,0,0,0.833392,1167.57,-377.645)">
        <path d="M631.299,1229.88C631.299,1232.49 629.184,1234.61 626.575,1234.61C623.966,1234.61 621.85,1232.49 621.85,1229.88C621.85,1227.27 623.966,1225.16 626.575,1225.16C629.184,1225.16 631.299,1227.27 631.299,1229.88Z" style="fill:white;fill-rule:nonzero;"/>
    </g>
    <g transform="matrix(0.924662,0,0,0.833392,1167.57,-377.645)">
        <path d="M571.299,1079.88C571.299,1082.49 569.184,1084.61 566.575,1084.61C563.966,1084.61 561.85,1082.49 561.85,1079.88C561.85,1077.27 563.966,1075.16 566.575,1075.16C569.184,1075.16 571.299,1077.27 571.299,1079.88Z" style="fill:white;fill-rule:nonzero;"/>
    </g>
    <g transform="matrix(0.924662,0,0,0.833392,1167.57,-377.645)">
        <path d="M571.299,1109.88C571.299,1112.49 569.184,1114.61 566.575,1114.61C563.966,1114.61 561.85,1112.49 561.85,1109.88C561.85,1107.27 563.966,1105.16 566.575,1105.16C569.184,1105.16 571.299,1107.27 571.299,1109.88Z" style="fill:white;fill-rule:nonzero;"/>
    </g>
    <g transform="matrix(0.924662,0,0,0.833392,1167.57,-377.645)">
        <path d="M571.299,1139.88C571.299,1142.49 569.184,1144.61 566.575,1144.61C563.966,1144.61 561.85,1142.49 561.85,1139.88C561.85,1137.27 563.966,1135.16 566.575,1135.16C569.184,1135.16 571.299,1137.27 571.299,1139.88Z" style="fill:white;fill-rule:nonzero;"/>
    </g>
    <g transform="matrix(0.924662,0,0,0.833392,1167.57,-377.645)">
        <path d="M571.299,1169.88C571.299,1172.49 569.184,1174.61 566.575,1174.61C563.966,1174.61 561.85,1172.49 561.85,1169.88C561.85,1167.27 563.966,1165.16 566.575,1165.16C569.184,1165.16 571.299,1167.27 571.299,1169.88Z" style="fill:white;fill-rule:nonzero;"/>
    </g>
    <g transform="matrix(0.924662,0,0,0.833392,1167.57,-377.645)">
        <path d="M631.299,1169.88C631.299,1172.49 629.184,1174.61 626.575,1174.61C623.966,1174.61 621.85,1172.49 621.85,1169.88C621.85,1167.27 623.966,1165.16 626.575,1165.16C629.184,1165.16 631.299,1167.27 631.299,1169.88Z" style="fill:white;fill-rule:nonzero;"/>
    </g>
    <g transform="matrix(0.924662,0,0,0.833392,1167.57,-377.645)">
        <path d="M631.299,1139.88C631.299,1142.49 629.184,1144.61 626.575,1144.61C623.966,1144.61 621.85,1142.49 621.85,1139.88C621.85,1137.27 623.966,1135.16 626.575,1135.16C629.184,1135.16 631.299,1137.27 631.299,1139.88Z" style="fill:white;fill-rule:nonzero;"/>
    </g>
    <g transform="matrix(0.924662,0,0,0.833392,1167.57,-377.645)">
        <path d="M631.299,1109.88C631.299,1112.49 629.184,1114.61 626.575,1114.61C623.966,1114.61 621.85,1112.49 621.85,1109.88C621.85,1107.27 623.966,1105.16 626.575,1105.16C629.184,1105.16 631.299,1107.27 631.299,1109.88Z" style="fill:white;fill-rule:nonzero;"/>
    </g>
    <g transform="matrix(0.924662,0,0,0.833392,1167.57,-377.645)">
        <path d="M631.299,1079.88C631.299,1082.49 629.184,1084.61 626.575,1084.61C623.966,1084.61 621.85,1082.49 621.85,1079.88C621.85,1077.27 623.966,1075.16 626.575,1075.16C629.184,1075.16 631.299,1077.27 631.299,1079.88Z" style="fill:white;fill-rule:nonzero;"/>
    </g>
    <g transform="matrix(0.924662,0,0,0.833392,1167.57,-377.645)">
        <path d="M631.299,1229.88C631.299,1232.49 629.184,1234.61 626.575,1234.61C623.966,1234.61 621.85,1232.49 621.85,1229.88C621.85,1227.27 623.966,1225.16 626.575,1225.16C629.184,1225.16 631.299,1227.27 631.299,1229.88Z" style="fill:white;fill-rule:nonzero;"/>
    </g>
    <g transform="matrix(1,0,0,1,245.87,-466.137)">
        <text x="332.789px" y="867.592px" style="font-family:'OCRA', monospace;font-size:25px;">01000011 01101000 01110010 01101001 01110011 01110100 01101111 01110000</text>
        <text x="332.789px" y="894.842px" style="font-family:'OCRA', monospace;font-size:25px;">01101000 00100000 01001011 01110101 01101101 01101101 01100101 01110010</text>
    </g>
    <g transform="matrix(1.12296,0,0,1.04271,-85.1615,-75.9148)">
        <path d="M2134.76,256.275C2134.76,231.251 2115.93,210.966 2092.69,210.966C1837.49,210.966 499.283,210.966 244.077,210.966C220.842,210.966 202.006,231.251 202.006,256.275C202.006,369.783 202.006,665.336 202.006,778.844C202.006,803.868 220.842,824.153 244.077,824.153C499.283,824.153 1837.49,824.153 2092.69,824.153C2115.93,824.153 2134.76,803.868 2134.76,778.844C2134.76,665.336 2134.76,369.783 2134.76,256.275Z" style="fill:none;stroke:black;stroke-width:0.11px;stroke-linecap:round;stroke-linejoin:round;stroke-miterlimit:1.5;"/>
    </g>
    <g transform="matrix(0.962546,0,0,1.01616,-1855,-729.738)">
        <rect x="2173.81" y="945.943" width="49.361" height="476.415" style="fill:none;stroke:black;stroke-width:0.12px;stroke-linecap:round;stroke-linejoin:round;stroke-miterlimit:1.5;"/>
    </g>
    <g transform="matrix(0.962546,0,0,1.01616,80.1331,-736.617)">
        <rect x="2173.81" y="945.943" width="49.361" height="476.415" style="fill:none;stroke:black;stroke-width:0.12px;stroke-linecap:round;stroke-linejoin:round;stroke-miterlimit:1.5;"/>
    </g>
    <g transform="matrix(1,0,0,1,312.848,728.907)">
        <text x="277.336px" y="326.619px" style="font-family:'TGL0-16', 'TGL 0-16', sans-serif;font-size:150px;">Christoph Kummer</text>
    </g>
    <g transform="matrix(1,0,0,1,331.816,682.744)">
        <text x="284.297px" y="575.502px" style="font-family:'TGL31034-2', 'TGL 31034-2';font-size:125px;">UNIX Systems Engineer</text>
    </g>
    <g transform="matrix(-1,0,0,1,1822.76,547.546)">
        <text x="290.71px" y="820.124px" style="font-family:'TGL31034-2', 'TGL 31034-2';font-size:125px;">Reverse-Engineer</text>
    </g>
    <g transform="matrix(1,0,0,1,333.612,746.325)">
        <text x="293.469px" y="633.979px" style="font-family:'TGL31034-2', 'TGL 31034-2';font-size:125px;">+</text>
    </g>
    <g transform="matrix(0.924662,0,0,0.833392,1165.06,339.144)">
        <path d="M626.575,1079.88L626.575,1064.88" style="fill:none;stroke:black;stroke-width:10.73px;"/>
    </g>
    <g transform="matrix(0.924662,0,0,0.833392,1165.06,339.144)">
        <path d="M626.575,1064.88L611.575,1049.88" style="fill:none;stroke:black;stroke-width:10.73px;"/>
    </g>
    <g transform="matrix(0.924662,0,0,0.833392,1165.06,339.144)">
        <path d="M611.575,1049.88L551.575,1049.88" style="fill:none;stroke:black;stroke-width:10.73px;"/>
    </g>
    <g transform="matrix(0.924662,0,0,0.833392,1165.06,339.144)">
        <path d="M551.575,1049.88L536.575,1064.88" style="fill:none;stroke:black;stroke-width:10.73px;"/>
    </g>
    <g transform="matrix(0.924662,0,0,0.833392,1165.06,339.144)">
        <path d="M536.575,1064.88L536.575,1184.88" style="fill:none;stroke:black;stroke-width:10.73px;"/>
    </g>
    <g transform="matrix(0.924662,0,0,0.833392,1165.06,339.144)">
        <path d="M536.575,1184.88L551.575,1199.88" style="fill:none;stroke:black;stroke-width:10.73px;"/>
    </g>
    <g transform="matrix(0.924662,0,0,0.833392,1165.06,339.144)">
        <path d="M551.575,1199.88L611.575,1199.88" style="fill:none;stroke:black;stroke-width:10.73px;"/>
    </g>
    <g transform="matrix(0.924662,0,0,0.833392,1165.06,339.144)">
        <path d="M611.575,1199.88L626.575,1184.88" style="fill:none;stroke:black;stroke-width:10.73px;"/>
    </g>
    <g transform="matrix(0.924662,0,0,0.833392,1165.06,339.144)">
        <path d="M626.575,1184.88L626.575,1169.88" style="fill:none;stroke:black;stroke-width:10.73px;"/>
    </g>
    <g transform="matrix(0.924662,0,0,0.833392,1165.06,339.144)">
        <path d="M631.299,1079.88C631.299,1082.49 629.184,1084.61 626.575,1084.61C623.966,1084.61 621.85,1082.49 621.85,1079.88C621.85,1077.27 623.966,1075.16 626.575,1075.16C629.184,1075.16 631.299,1077.27 631.299,1079.88Z" style="fill-rule:nonzero;"/>
    </g>
    <g transform="matrix(0.924662,0,0,0.833392,1165.06,339.144)">
        <path d="M631.299,1064.88C631.299,1067.49 629.184,1069.61 626.575,1069.61C623.966,1069.61 621.85,1067.49 621.85,1064.88C621.85,1062.27 623.966,1060.16 626.575,1060.16C629.184,1060.16 631.299,1062.27 631.299,1064.88Z" style="fill-rule:nonzero;"/>
    </g>
    <g transform="matrix(0.924662,0,0,0.833392,1165.06,339.144)">
        <path d="M631.299,1064.88C631.299,1067.49 629.184,1069.61 626.575,1069.61C623.966,1069.61 621.85,1067.49 621.85,1064.88C621.85,1062.27 623.966,1060.16 626.575,1060.16C629.184,1060.16 631.299,1062.27 631.299,1064.88Z" style="fill-rule:nonzero;"/>
    </g>
    <g transform="matrix(0.924662,0,0,0.833392,1165.06,339.144)">
        <path d="M631.299,1064.88C631.299,1067.49 629.184,1069.61 626.575,1069.61C623.966,1069.61 621.85,1067.49 621.85,1064.88C621.85,1062.27 623.966,1060.16 626.575,1060.16C629.184,1060.16 631.299,1062.27 631.299,1064.88Z" style="fill-rule:nonzero;"/>
    </g>
    <g transform="matrix(0.924662,0,0,0.833392,1165.06,339.144)">
        <path d="M616.299,1049.88C616.299,1052.49 614.184,1054.61 611.575,1054.61C608.966,1054.61 606.85,1052.49 606.85,1049.88C606.85,1047.27 608.966,1045.16 611.575,1045.16C614.184,1045.16 616.299,1047.27 616.299,1049.88Z" style="fill-rule:nonzero;"/>
    </g>
    <g transform="matrix(0.924662,0,0,0.833392,1165.06,339.144)">
        <path d="M556.299,1049.88C556.299,1052.49 554.184,1054.61 551.575,1054.61C548.966,1054.61 546.85,1052.49 546.85,1049.88C546.85,1047.27 548.966,1045.16 551.575,1045.16C554.184,1045.16 556.299,1047.27 556.299,1049.88Z" style="fill-rule:nonzero;"/>
    </g>
    <g transform="matrix(0.924662,0,0,0.833392,1165.06,339.144)">
        <path d="M556.299,1049.88C556.299,1052.49 554.184,1054.61 551.575,1054.61C548.966,1054.61 546.85,1052.49 546.85,1049.88C546.85,1047.27 548.966,1045.16 551.575,1045.16C554.184,1045.16 556.299,1047.27 556.299,1049.88Z" style="fill-rule:nonzero;"/>
    </g>
    <g transform="matrix(0.924662,0,0,0.833392,1165.06,339.144)">
        <path d="M556.299,1049.88C556.299,1052.49 554.184,1054.61 551.575,1054.61C548.966,1054.61 546.85,1052.49 546.85,1049.88C546.85,1047.27 548.966,1045.16 551.575,1045.16C554.184,1045.16 556.299,1047.27 556.299,1049.88Z" style="fill-rule:nonzero;"/>
    </g>
    <g transform="matrix(0.924662,0,0,0.833392,1165.06,339.144)">
        <path d="M541.299,1064.88C541.299,1067.49 539.184,1069.61 536.575,1069.61C533.966,1069.61 531.85,1067.49 531.85,1064.88C531.85,1062.27 533.966,1060.16 536.575,1060.16C539.184,1060.16 541.299,1062.27 541.299,1064.88Z" style="fill-rule:nonzero;"/>
    </g>
    <g transform="matrix(0.924662,0,0,0.833392,1165.06,339.144)">
        <path d="M541.299,1184.88C541.299,1187.49 539.184,1189.61 536.575,1189.61C533.966,1189.61 531.85,1187.49 531.85,1184.88C531.85,1182.27 533.966,1180.16 536.575,1180.16C539.184,1180.16 541.299,1182.27 541.299,1184.88Z" style="fill-rule:nonzero;"/>
    </g>
    <g transform="matrix(0.924662,0,0,0.833392,1165.06,339.144)">
        <path d="M541.299,1184.88C541.299,1187.49 539.184,1189.61 536.575,1189.61C533.966,1189.61 531.85,1187.49 531.85,1184.88C531.85,1182.27 533.966,1180.16 536.575,1180.16C539.184,1180.16 541.299,1182.27 541.299,1184.88Z" style="fill-rule:nonzero;"/>
    </g>
    <g transform="matrix(0.924662,0,0,0.833392,1165.06,339.144)">
        <path d="M541.299,1184.88C541.299,1187.49 539.184,1189.61 536.575,1189.61C533.966,1189.61 531.85,1187.49 531.85,1184.88C531.85,1182.27 533.966,1180.16 536.575,1180.16C539.184,1180.16 541.299,1182.27 541.299,1184.88Z" style="fill-rule:nonzero;"/>
    </g>
    <g transform="matrix(0.924662,0,0,0.833392,1165.06,339.144)">
        <path d="M556.299,1199.88C556.299,1202.49 554.184,1204.61 551.575,1204.61C548.966,1204.61 546.85,1202.49 546.85,1199.88C546.85,1197.27 548.966,1195.16 551.575,1195.16C554.184,1195.16 556.299,1197.27 556.299,1199.88Z" style="fill-rule:nonzero;"/>
    </g>
    <g transform="matrix(0.924662,0,0,0.833392,1165.06,339.144)">
        <path d="M616.299,1199.88C616.299,1202.49 614.184,1204.61 611.575,1204.61C608.966,1204.61 606.85,1202.49 606.85,1199.88C606.85,1197.27 608.966,1195.16 611.575,1195.16C614.184,1195.16 616.299,1197.27 616.299,1199.88Z" style="fill-rule:nonzero;"/>
    </g>
    <g transform="matrix(0.924662,0,0,0.833392,1165.06,339.144)">
        <path d="M616.299,1199.88C616.299,1202.49 614.184,1204.61 611.575,1204.61C608.966,1204.61 606.85,1202.49 606.85,1199.88C606.85,1197.27 608.966,1195.16 611.575,1195.16C614.184,1195.16 616.299,1197.27 616.299,1199.88Z" style="fill-rule:nonzero;"/>
    </g>
    <g transform="matrix(0.924662,0,0,0.833392,1165.06,339.144)">
        <path d="M616.299,1199.88C616.299,1202.49 614.184,1204.61 611.575,1204.61C608.966,1204.61 606.85,1202.49 606.85,1199.88C606.85,1197.27 608.966,1195.16 611.575,1195.16C614.184,1195.16 616.299,1197.27 616.299,1199.88Z" style="fill-rule:nonzero;"/>
    </g>
    <g transform="matrix(0.924662,0,0,0.833392,1165.06,339.144)">
        <path d="M631.299,1184.88C631.299,1187.49 629.184,1189.61 626.575,1189.61C623.966,1189.61 621.85,1187.49 621.85,1184.88C621.85,1182.27 623.966,1180.16 626.575,1180.16C629.184,1180.16 631.299,1182.27 631.299,1184.88Z" style="fill-rule:nonzero;"/>
    </g>
    <g transform="matrix(0.924662,0,0,0.833392,1165.06,339.144)">
        <path d="M631.299,1169.88C631.299,1172.49 629.184,1174.61 626.575,1174.61C623.966,1174.61 621.85,1172.49 621.85,1169.88C621.85,1167.27 623.966,1165.16 626.575,1165.16C629.184,1165.16 631.299,1167.27 631.299,1169.88Z" style="fill-rule:nonzero;"/>
    </g>
    <g transform="matrix(0.924662,0,0,0.833392,1165.06,339.144)">
        <path d="M631.299,1169.88C631.299,1172.49 629.184,1174.61 626.575,1174.61C623.966,1174.61 621.85,1172.49 621.85,1169.88C621.85,1167.27 623.966,1165.16 626.575,1165.16C629.184,1165.16 631.299,1167.27 631.299,1169.88Z" style="fill-rule:nonzero;"/>
    </g>
    <g transform="matrix(0.924662,0,0,0.833392,1165.06,339.144)">
        <path d="M626.575,1169.88L626.575,1184.88" style="fill:none;stroke:black;stroke-width:10.73px;"/>
    </g>
    <g transform="matrix(0.924662,0,0,0.833392,1165.06,339.144)">
        <path d="M626.575,1184.88L641.575,1199.88" style="fill:none;stroke:black;stroke-width:10.73px;"/>
    </g>
    <g transform="matrix(0.924662,0,0,0.833392,1165.06,339.144)">
        <path d="M641.575,1199.88L656.575,1184.88" style="fill:none;stroke:black;stroke-width:10.73px;"/>
    </g>
    <g transform="matrix(0.924662,0,0,0.833392,1165.06,339.144)">
        <path d="M656.575,1184.88L656.575,1049.88" style="fill:none;stroke:black;stroke-width:10.73px;"/>
    </g>
    <g transform="matrix(0.924662,0,0,0.833392,1165.06,339.144)">
        <path d="M656.575,1049.88L626.575,1019.88" style="fill:none;stroke:black;stroke-width:10.73px;"/>
    </g>
    <g transform="matrix(0.924662,0,0,0.833392,1165.06,339.144)">
        <path d="M626.575,1019.88L536.575,1019.88" style="fill:none;stroke:black;stroke-width:10.73px;"/>
    </g>
    <g transform="matrix(0.924662,0,0,0.833392,1165.06,339.144)">
        <path d="M536.575,1019.88L506.575,1049.88" style="fill:none;stroke:black;stroke-width:10.73px;"/>
    </g>
    <g transform="matrix(0.924662,0,0,0.833392,1165.06,339.144)">
        <path d="M506.575,1049.88L506.575,1199.88" style="fill:none;stroke:black;stroke-width:10.73px;"/>
    </g>
    <g transform="matrix(0.924662,0,0,0.833392,1165.06,339.144)">
        <path d="M506.575,1199.88L536.575,1229.88" style="fill:none;stroke:black;stroke-width:10.73px;"/>
    </g>
    <g transform="matrix(0.924662,0,0,0.833392,1165.06,339.144)">
        <path d="M536.575,1229.88L611.575,1229.88" style="fill:none;stroke:black;stroke-width:10.73px;"/>
    </g>
    <g transform="matrix(0.924662,0,0,0.833392,1165.06,339.144)">
        <path d="M631.299,1169.88C631.299,1172.49 629.184,1174.61 626.575,1174.61C623.966,1174.61 621.85,1172.49 621.85,1169.88C621.85,1167.27 623.966,1165.16 626.575,1165.16C629.184,1165.16 631.299,1167.27 631.299,1169.88Z" style="fill-rule:nonzero;"/>
    </g>
    <g transform="matrix(0.924662,0,0,0.833392,1165.06,339.144)">
        <path d="M631.299,1184.88C631.299,1187.49 629.184,1189.61 626.575,1189.61C623.966,1189.61 621.85,1187.49 621.85,1184.88C621.85,1182.27 623.966,1180.16 626.575,1180.16C629.184,1180.16 631.299,1182.27 631.299,1184.88Z" style="fill-rule:nonzero;"/>
    </g>
    <g transform="matrix(0.924662,0,0,0.833392,1165.06,339.144)">
        <path d="M631.299,1184.88C631.299,1187.49 629.184,1189.61 626.575,1189.61C623.966,1189.61 621.85,1187.49 621.85,1184.88C621.85,1182.27 623.966,1180.16 626.575,1180.16C629.184,1180.16 631.299,1182.27 631.299,1184.88Z" style="fill-rule:nonzero;"/>
    </g>
    <g transform="matrix(0.924662,0,0,0.833392,1165.06,339.144)">
        <path d="M631.299,1184.88C631.299,1187.49 629.184,1189.61 626.575,1189.61C623.966,1189.61 621.85,1187.49 621.85,1184.88C621.85,1182.27 623.966,1180.16 626.575,1180.16C629.184,1180.16 631.299,1182.27 631.299,1184.88Z" style="fill-rule:nonzero;"/>
    </g>
    <g transform="matrix(0.924662,0,0,0.833392,1165.06,339.144)">
        <path d="M646.299,1199.88C646.299,1202.49 644.184,1204.61 641.575,1204.61C638.966,1204.61 636.85,1202.49 636.85,1199.88C636.85,1197.27 638.966,1195.16 641.575,1195.16C644.184,1195.16 646.299,1197.27 646.299,1199.88Z" style="fill-rule:nonzero;"/>
    </g>
    <g transform="matrix(0.924662,0,0,0.833392,1165.06,339.144)">
        <path d="M646.299,1199.88C646.299,1202.49 644.184,1204.61 641.575,1204.61C638.966,1204.61 636.85,1202.49 636.85,1199.88C636.85,1197.27 638.966,1195.16 641.575,1195.16C644.184,1195.16 646.299,1197.27 646.299,1199.88Z" style="fill-rule:nonzero;"/>
    </g>
    <g transform="matrix(0.924662,0,0,0.833392,1165.06,339.144)">
        <path d="M661.299,1184.88C661.299,1187.49 659.184,1189.61 656.575,1189.61C653.966,1189.61 651.85,1187.49 651.85,1184.88C651.85,1182.27 653.966,1180.16 656.575,1180.16C659.184,1180.16 661.299,1182.27 661.299,1184.88Z" style="fill-rule:nonzero;"/>
    </g>
    <g transform="matrix(0.924662,0,0,0.833392,1165.06,339.144)">
        <path d="M661.299,1049.88C661.299,1052.49 659.184,1054.61 656.575,1054.61C653.966,1054.61 651.85,1052.49 651.85,1049.88C651.85,1047.27 653.966,1045.16 656.575,1045.16C659.184,1045.16 661.299,1047.27 661.299,1049.88Z" style="fill-rule:nonzero;"/>
    </g>
    <g transform="matrix(0.924662,0,0,0.833392,1165.06,339.144)">
        <path d="M661.299,1049.88C661.299,1052.49 659.184,1054.61 656.575,1054.61C653.966,1054.61 651.85,1052.49 651.85,1049.88C651.85,1047.27 653.966,1045.16 656.575,1045.16C659.184,1045.16 661.299,1047.27 661.299,1049.88Z" style="fill-rule:nonzero;"/>
    </g>
    <g transform="matrix(0.924662,0,0,0.833392,1165.06,339.144)">
        <path d="M661.299,1049.88C661.299,1052.49 659.184,1054.61 656.575,1054.61C653.966,1054.61 651.85,1052.49 651.85,1049.88C651.85,1047.27 653.966,1045.16 656.575,1045.16C659.184,1045.16 661.299,1047.27 661.299,1049.88Z" style="fill-rule:nonzero;"/>
    </g>
    <g transform="matrix(0.924662,0,0,0.833392,1165.06,339.144)">
        <path d="M631.299,1019.88C631.299,1022.49 629.184,1024.61 626.575,1024.61C623.966,1024.61 621.85,1022.49 621.85,1019.88C621.85,1017.27 623.966,1015.16 626.575,1015.16C629.184,1015.16 631.299,1017.27 631.299,1019.88Z" style="fill-rule:nonzero;"/>
    </g>
    <g transform="matrix(0.924662,0,0,0.833392,1165.06,339.144)">
        <path d="M541.299,1019.88C541.299,1022.49 539.184,1024.61 536.575,1024.61C533.966,1024.61 531.85,1022.49 531.85,1019.88C531.85,1017.27 533.966,1015.16 536.575,1015.16C539.184,1015.16 541.299,1017.27 541.299,1019.88Z" style="fill-rule:nonzero;"/>
    </g>
    <g transform="matrix(0.924662,0,0,0.833392,1165.06,339.144)">
        <path d="M541.299,1019.88C541.299,1022.49 539.184,1024.61 536.575,1024.61C533.966,1024.61 531.85,1022.49 531.85,1019.88C531.85,1017.27 533.966,1015.16 536.575,1015.16C539.184,1015.16 541.299,1017.27 541.299,1019.88Z" style="fill-rule:nonzero;"/>
    </g>
    <g transform="matrix(0.924662,0,0,0.833392,1165.06,339.144)">
        <path d="M541.299,1019.88C541.299,1022.49 539.184,1024.61 536.575,1024.61C533.966,1024.61 531.85,1022.49 531.85,1019.88C531.85,1017.27 533.966,1015.16 536.575,1015.16C539.184,1015.16 541.299,1017.27 541.299,1019.88Z" style="fill-rule:nonzero;"/>
    </g>
    <g transform="matrix(0.924662,0,0,0.833392,1165.06,339.144)">
        <path d="M511.299,1049.88C511.299,1052.49 509.184,1054.61 506.575,1054.61C503.966,1054.61 501.85,1052.49 501.85,1049.88C501.85,1047.27 503.966,1045.16 506.575,1045.16C509.184,1045.16 511.299,1047.27 511.299,1049.88Z" style="fill-rule:nonzero;"/>
    </g>
    <g transform="matrix(0.924662,0,0,0.833392,1165.06,339.144)">
        <path d="M511.299,1199.88C511.299,1202.49 509.184,1204.61 506.575,1204.61C503.966,1204.61 501.85,1202.49 501.85,1199.88C501.85,1197.27 503.966,1195.16 506.575,1195.16C509.184,1195.16 511.299,1197.27 511.299,1199.88Z" style="fill-rule:nonzero;"/>
    </g>
    <g transform="matrix(0.924662,0,0,0.833392,1165.06,339.144)">
        <path d="M511.299,1199.88C511.299,1202.49 509.184,1204.61 506.575,1204.61C503.966,1204.61 501.85,1202.49 501.85,1199.88C501.85,1197.27 503.966,1195.16 506.575,1195.16C509.184,1195.16 511.299,1197.27 511.299,1199.88Z" style="fill-rule:nonzero;"/>
    </g>
    <g transform="matrix(0.924662,0,0,0.833392,1165.06,339.144)">
        <path d="M511.299,1199.88C511.299,1202.49 509.184,1204.61 506.575,1204.61C503.966,1204.61 501.85,1202.49 501.85,1199.88C501.85,1197.27 503.966,1195.16 506.575,1195.16C509.184,1195.16 511.299,1197.27 511.299,1199.88Z" style="fill-rule:nonzero;"/>
    </g>
    <g transform="matrix(0.924662,0,0,0.833392,1165.06,339.144)">
        <path d="M541.299,1229.88C541.299,1232.49 539.184,1234.61 536.575,1234.61C533.966,1234.61 531.85,1232.49 531.85,1229.88C531.85,1227.27 533.966,1225.16 536.575,1225.16C539.184,1225.16 541.299,1227.27 541.299,1229.88Z" style="fill-rule:nonzero;"/>
    </g>
    <g transform="matrix(0.924662,0,0,0.833392,1165.06,339.144)">
        <path d="M616.299,1229.88C616.299,1232.49 614.184,1234.61 611.575,1234.61C608.966,1234.61 606.85,1232.49 606.85,1229.88C606.85,1227.27 608.966,1225.16 611.575,1225.16C614.184,1225.16 616.299,1227.27 616.299,1229.88Z" style="fill-rule:nonzero;"/>
    </g>
    <g transform="matrix(0.924662,0,0,0.833392,1165.06,339.144)">
        <path d="M616.299,1229.88C616.299,1232.49 614.184,1234.61 611.575,1234.61C608.966,1234.61 606.85,1232.49 606.85,1229.88C606.85,1227.27 608.966,1225.16 611.575,1225.16C614.184,1225.16 616.299,1227.27 616.299,1229.88Z" style="fill-rule:nonzero;"/>
    </g>
    <g transform="matrix(0.924662,0,0,0.833392,1165.06,339.144)">
        <path d="M626.575,1079.88L626.575,1169.88" style="fill:none;stroke:black;stroke-width:10.73px;"/>
    </g>
    <g transform="matrix(0.924662,0,0,0.833392,1165.06,339.144)">
        <path d="M631.299,1079.88C631.299,1082.49 629.184,1084.61 626.575,1084.61C623.966,1084.61 621.85,1082.49 621.85,1079.88C621.85,1077.27 623.966,1075.16 626.575,1075.16C629.184,1075.16 631.299,1077.27 631.299,1079.88Z" style="fill-rule:nonzero;"/>
    </g>
    <g transform="matrix(0.924662,0,0,0.833392,1165.06,339.144)">
        <path d="M631.299,1169.88C631.299,1172.49 629.184,1174.61 626.575,1174.61C623.966,1174.61 621.85,1172.49 621.85,1169.88C621.85,1167.27 623.966,1165.16 626.575,1165.16C629.184,1165.16 631.299,1167.27 631.299,1169.88Z" style="fill-rule:nonzero;"/>
    </g>
    <g transform="matrix(0.924662,0,0,0.833392,1165.06,339.144)">
        <path d="M631.299,1169.88C631.299,1172.49 629.184,1174.61 626.575,1174.61C623.966,1174.61 621.85,1172.49 621.85,1169.88C621.85,1167.27 623.966,1165.16 626.575,1165.16C629.184,1165.16 631.299,1167.27 631.299,1169.88Z" style="fill-rule:nonzero;"/>
    </g>
    <g transform="matrix(0.924662,0,0,0.833392,1165.06,339.144)">
        <path d="M596.575,1229.88L626.575,1229.88" style="fill:none;stroke:black;stroke-width:10.73px;"/>
    </g>
    <g transform="matrix(0.924662,0,0,0.833392,1165.06,339.144)">
        <path d="M601.299,1229.88C601.299,1232.49 599.184,1234.61 596.575,1234.61C593.966,1234.61 591.85,1232.49 591.85,1229.88C591.85,1227.27 593.966,1225.16 596.575,1225.16C599.184,1225.16 601.299,1227.27 601.299,1229.88Z" style="fill-rule:nonzero;"/>
    </g>
    <g transform="matrix(0.924662,0,0,0.833392,1165.06,339.144)">
        <path d="M631.299,1229.88C631.299,1232.49 629.184,1234.61 626.575,1234.61C623.966,1234.61 621.85,1232.49 621.85,1229.88C621.85,1227.27 623.966,1225.16 626.575,1225.16C629.184,1225.16 631.299,1227.27 631.299,1229.88Z" style="fill-rule:nonzero;"/>
    </g>
    <g transform="matrix(0.924662,0,0,0.833392,1165.06,339.144)">
        <path d="M631.299,1229.88C631.299,1232.49 629.184,1234.61 626.575,1234.61C623.966,1234.61 621.85,1232.49 621.85,1229.88C621.85,1227.27 623.966,1225.16 626.575,1225.16C629.184,1225.16 631.299,1227.27 631.299,1229.88Z" style="fill-rule:nonzero;"/>
    </g>
    <g transform="matrix(0.924662,0,0,0.833392,1165.06,339.144)">
        <path d="M578.386,1079.88C578.386,1086.4 573.098,1091.69 566.575,1091.69C560.052,1091.69 554.764,1086.4 554.764,1079.88C554.764,1073.36 560.052,1068.07 566.575,1068.07C573.098,1068.07 578.386,1073.36 578.386,1079.88Z" style="fill-rule:nonzero;"/>
    </g>
    <g transform="matrix(0.924662,0,0,0.833392,1165.06,339.144)">
        <path d="M571.299,1079.88C571.299,1082.49 569.184,1084.61 566.575,1084.61C563.966,1084.61 561.85,1082.49 561.85,1079.88C561.85,1077.27 563.966,1075.16 566.575,1075.16C569.184,1075.16 571.299,1077.27 571.299,1079.88Z" style="fill:white;fill-rule:nonzero;"/>
    </g>
    <g transform="matrix(0.924662,0,0,0.833392,1165.06,339.144)">
        <path d="M578.386,1109.88C578.386,1116.4 573.098,1121.69 566.575,1121.69C560.052,1121.69 554.764,1116.4 554.764,1109.88C554.764,1103.36 560.052,1098.07 566.575,1098.07C573.098,1098.07 578.386,1103.36 578.386,1109.88Z" style="fill-rule:nonzero;"/>
    </g>
    <g transform="matrix(0.924662,0,0,0.833392,1165.06,339.144)">
        <path d="M571.299,1109.88C571.299,1112.49 569.184,1114.61 566.575,1114.61C563.966,1114.61 561.85,1112.49 561.85,1109.88C561.85,1107.27 563.966,1105.16 566.575,1105.16C569.184,1105.16 571.299,1107.27 571.299,1109.88Z" style="fill:white;fill-rule:nonzero;"/>
    </g>
    <g transform="matrix(0.924662,0,0,0.833392,1165.06,339.144)">
        <path d="M578.386,1139.88C578.386,1146.4 573.098,1151.69 566.575,1151.69C560.052,1151.69 554.764,1146.4 554.764,1139.88C554.764,1133.36 560.052,1128.07 566.575,1128.07C573.098,1128.07 578.386,1133.36 578.386,1139.88Z" style="fill-rule:nonzero;"/>
    </g>
    <g transform="matrix(0.924662,0,0,0.833392,1165.06,339.144)">
        <path d="M571.299,1139.88C571.299,1142.49 569.184,1144.61 566.575,1144.61C563.966,1144.61 561.85,1142.49 561.85,1139.88C561.85,1137.27 563.966,1135.16 566.575,1135.16C569.184,1135.16 571.299,1137.27 571.299,1139.88Z" style="fill:white;fill-rule:nonzero;"/>
    </g>
    <g transform="matrix(0.924662,0,0,0.833392,1165.06,339.144)">
        <path d="M578.386,1169.88C578.386,1176.4 573.098,1181.69 566.575,1181.69C560.052,1181.69 554.764,1176.4 554.764,1169.88C554.764,1163.36 560.052,1158.07 566.575,1158.07C573.098,1158.07 578.386,1163.36 578.386,1169.88Z" style="fill-rule:nonzero;"/>
    </g>
    <g transform="matrix(0.924662,0,0,0.833392,1165.06,339.144)">
        <path d="M571.299,1169.88C571.299,1172.49 569.184,1174.61 566.575,1174.61C563.966,1174.61 561.85,1172.49 561.85,1169.88C561.85,1167.27 563.966,1165.16 566.575,1165.16C569.184,1165.16 571.299,1167.27 571.299,1169.88Z" style="fill:white;fill-rule:nonzero;"/>
    </g>
    <g transform="matrix(0.924662,0,0,0.833392,1165.06,339.144)">
        <path d="M638.386,1169.88C638.386,1176.4 633.098,1181.69 626.575,1181.69C620.052,1181.69 614.764,1176.4 614.764,1169.88C614.764,1163.36 620.052,1158.07 626.575,1158.07C633.098,1158.07 638.386,1163.36 638.386,1169.88Z" style="fill-rule:nonzero;"/>
    </g>
    <g transform="matrix(0.924662,0,0,0.833392,1165.06,339.144)">
        <path d="M631.299,1169.88C631.299,1172.49 629.184,1174.61 626.575,1174.61C623.966,1174.61 621.85,1172.49 621.85,1169.88C621.85,1167.27 623.966,1165.16 626.575,1165.16C629.184,1165.16 631.299,1167.27 631.299,1169.88Z" style="fill:white;fill-rule:nonzero;"/>
    </g>
    <g transform="matrix(0.924662,0,0,0.833392,1165.06,339.144)">
        <path d="M638.386,1139.88C638.386,1146.4 633.098,1151.69 626.575,1151.69C620.052,1151.69 614.764,1146.4 614.764,1139.88C614.764,1133.36 620.052,1128.07 626.575,1128.07C633.098,1128.07 638.386,1133.36 638.386,1139.88Z" style="fill-rule:nonzero;"/>
    </g>
    <g transform="matrix(0.924662,0,0,0.833392,1165.06,339.144)">
        <path d="M631.299,1139.88C631.299,1142.49 629.184,1144.61 626.575,1144.61C623.966,1144.61 621.85,1142.49 621.85,1139.88C621.85,1137.27 623.966,1135.16 626.575,1135.16C629.184,1135.16 631.299,1137.27 631.299,1139.88Z" style="fill:white;fill-rule:nonzero;"/>
    </g>
    <g transform="matrix(0.924662,0,0,0.833392,1165.06,339.144)">
        <path d="M638.386,1109.88C638.386,1116.4 633.098,1121.69 626.575,1121.69C620.052,1121.69 614.764,1116.4 614.764,1109.88C614.764,1103.36 620.052,1098.07 626.575,1098.07C633.098,1098.07 638.386,1103.36 638.386,1109.88Z" style="fill-rule:nonzero;"/>
    </g>
    <g transform="matrix(0.924662,0,0,0.833392,1165.06,339.144)">
        <path d="M631.299,1109.88C631.299,1112.49 629.184,1114.61 626.575,1114.61C623.966,1114.61 621.85,1112.49 621.85,1109.88C621.85,1107.27 623.966,1105.16 626.575,1105.16C629.184,1105.16 631.299,1107.27 631.299,1109.88Z" style="fill:white;fill-rule:nonzero;"/>
    </g>
    <g transform="matrix(0.924662,0,0,0.833392,1165.06,339.144)">
        <path d="M638.386,1079.88C638.386,1086.4 633.098,1091.69 626.575,1091.69C620.052,1091.69 614.764,1086.4 614.764,1079.88C614.764,1073.36 620.052,1068.07 626.575,1068.07C633.098,1068.07 638.386,1073.36 638.386,1079.88Z" style="fill-rule:nonzero;"/>
    </g>
    <g transform="matrix(0.924662,0,0,0.833392,1165.06,339.144)">
        <path d="M631.299,1079.88C631.299,1082.49 629.184,1084.61 626.575,1084.61C623.966,1084.61 621.85,1082.49 621.85,1079.88C621.85,1077.27 623.966,1075.16 626.575,1075.16C629.184,1075.16 631.299,1077.27 631.299,1079.88Z" style="fill:white;fill-rule:nonzero;"/>
    </g>
    <g transform="matrix(0.924662,0,0,0.833392,1165.06,339.144)">
        <path d="M638.386,1229.88C638.386,1236.4 633.098,1241.69 626.575,1241.69C620.052,1241.69 614.764,1236.4 614.764,1229.88C614.764,1223.36 620.052,1218.07 626.575,1218.07C633.098,1218.07 638.386,1223.36 638.386,1229.88Z" style="fill-rule:nonzero;"/>
    </g>
    <g transform="matrix(0.924662,0,0,0.833392,1165.06,339.144)">
        <path d="M631.299,1229.88C631.299,1232.49 629.184,1234.61 626.575,1234.61C623.966,1234.61 621.85,1232.49 621.85,1229.88C621.85,1227.27 623.966,1225.16 626.575,1225.16C629.184,1225.16 631.299,1227.27 631.299,1229.88Z" style="fill:white;fill-rule:nonzero;"/>
    </g>
    <g transform="matrix(0.924662,0,0,0.833392,1165.06,339.144)">
        <path d="M571.299,1079.88C571.299,1082.49 569.184,1084.61 566.575,1084.61C563.966,1084.61 561.85,1082.49 561.85,1079.88C561.85,1077.27 563.966,1075.16 566.575,1075.16C569.184,1075.16 571.299,1077.27 571.299,1079.88Z" style="fill:white;fill-rule:nonzero;"/>
    </g>
    <g transform="matrix(0.924662,0,0,0.833392,1165.06,339.144)">
        <path d="M571.299,1109.88C571.299,1112.49 569.184,1114.61 566.575,1114.61C563.966,1114.61 561.85,1112.49 561.85,1109.88C561.85,1107.27 563.966,1105.16 566.575,1105.16C569.184,1105.16 571.299,1107.27 571.299,1109.88Z" style="fill:white;fill-rule:nonzero;"/>
    </g>
    <g transform="matrix(0.924662,0,0,0.833392,1165.06,339.144)">
        <path d="M571.299,1139.88C571.299,1142.49 569.184,1144.61 566.575,1144.61C563.966,1144.61 561.85,1142.49 561.85,1139.88C561.85,1137.27 563.966,1135.16 566.575,1135.16C569.184,1135.16 571.299,1137.27 571.299,1139.88Z" style="fill:white;fill-rule:nonzero;"/>
    </g>
    <g transform="matrix(0.924662,0,0,0.833392,1165.06,339.144)">
        <path d="M571.299,1169.88C571.299,1172.49 569.184,1174.61 566.575,1174.61C563.966,1174.61 561.85,1172.49 561.85,1169.88C561.85,1167.27 563.966,1165.16 566.575,1165.16C569.184,1165.16 571.299,1167.27 571.299,1169.88Z" style="fill:white;fill-rule:nonzero;"/>
    </g>
    <g transform="matrix(0.924662,0,0,0.833392,1165.06,339.144)">
        <path d="M631.299,1169.88C631.299,1172.49 629.184,1174.61 626.575,1174.61C623.966,1174.61 621.85,1172.49 621.85,1169.88C621.85,1167.27 623.966,1165.16 626.575,1165.16C629.184,1165.16 631.299,1167.27 631.299,1169.88Z" style="fill:white;fill-rule:nonzero;"/>
    </g>
    <g transform="matrix(0.924662,0,0,0.833392,1165.06,339.144)">
        <path d="M631.299,1139.88C631.299,1142.49 629.184,1144.61 626.575,1144.61C623.966,1144.61 621.85,1142.49 621.85,1139.88C621.85,1137.27 623.966,1135.16 626.575,1135.16C629.184,1135.16 631.299,1137.27 631.299,1139.88Z" style="fill:white;fill-rule:nonzero;"/>
    </g>
    <g transform="matrix(0.924662,0,0,0.833392,1165.06,339.144)">
        <path d="M631.299,1109.88C631.299,1112.49 629.184,1114.61 626.575,1114.61C623.966,1114.61 621.85,1112.49 621.85,1109.88C621.85,1107.27 623.966,1105.16 626.575,1105.16C629.184,1105.16 631.299,1107.27 631.299,1109.88Z" style="fill:white;fill-rule:nonzero;"/>
    </g>
    <g transform="matrix(0.924662,0,0,0.833392,1165.06,339.144)">
        <path d="M631.299,1079.88C631.299,1082.49 629.184,1084.61 626.575,1084.61C623.966,1084.61 621.85,1082.49 621.85,1079.88C621.85,1077.27 623.966,1075.16 626.575,1075.16C629.184,1075.16 631.299,1077.27 631.299,1079.88Z" style="fill:white;fill-rule:nonzero;"/>
    </g>
    <g transform="matrix(0.924662,0,0,0.833392,1165.06,339.144)">
        <path d="M631.299,1229.88C631.299,1232.49 629.184,1234.61 626.575,1234.61C623.966,1234.61 621.85,1232.49 621.85,1229.88C621.85,1227.27 623.966,1225.16 626.575,1225.16C629.184,1225.16 631.299,1227.27 631.299,1229.88Z" style="fill:white;fill-rule:nonzero;"/>
    </g>
    <g transform="matrix(1,0,0,1,243.362,250.652)">
        <text x="332.789px" y="867.592px" style="font-family:'OCRA', monospace;font-size:25px;">01000011 01101000 01110010 01101001 01110011 01110100 01101111 01110000</text>
        <text x="332.789px" y="894.842px" style="font-family:'OCRA', monospace;font-size:25px;">01101000 00100000 01001011 01110101 01101101 01101101 01100101 01110010</text>
    </g>
    <g transform="matrix(1.12296,0,0,1.04271,-87.6703,640.875)">
        <path d="M2134.76,256.275C2134.76,231.251 2115.93,210.966 2092.69,210.966C1837.49,210.966 499.283,210.966 244.077,210.966C220.842,210.966 202.006,231.251 202.006,256.275C202.006,369.783 202.006,665.336 202.006,778.844C202.006,803.868 220.842,824.153 244.077,824.153C499.283,824.153 1837.49,824.153 2092.69,824.153C2115.93,824.153 2134.76,803.868 2134.76,778.844C2134.76,665.336 2134.76,369.783 2134.76,256.275Z" style="fill:none;stroke:black;stroke-width:0.11px;stroke-linecap:round;stroke-linejoin:round;stroke-miterlimit:1.5;"/>
    </g>
    <g transform="matrix(0.962546,0,0,1.01616,-1857.51,-12.9487)">
        <rect x="2173.81" y="945.943" width="49.361" height="476.415" style="fill:none;stroke:black;stroke-width:0.12px;stroke-linecap:round;stroke-linejoin:round;stroke-miterlimit:1.5;"/>
    </g>
    <g transform="matrix(0.962546,0,0,1.01616,77.6244,-19.8273)">
        <rect x="2173.81" y="945.943" width="49.361" height="476.415" style="fill:none;stroke:black;stroke-width:0.12px;stroke-linecap:round;stroke-linejoin:round;stroke-miterlimit:1.5;"/>
    </g>
    <g transform="matrix(1,0,0,1,3.85531,901.787)">
        <path d="M755.716,1597.44L655.402,1596.77L612.148,1665.88L571.592,1646.87L335.501,2053.49L371.744,2075.94L332.171,2152.95L330.897,2263.51L1077.6,2270.07L1077.75,2155.08L1035.69,2082.81L1075.41,2055.61L837.654,1650.39L801.56,1670.89L755.716,1597.44Z" style="fill:none;stroke:black;stroke-width:0.04px;stroke-linecap:round;stroke-linejoin:round;stroke-miterlimit:1.5;"/>
    </g>
    <g transform="matrix(1,0,0,1,-3.00681,366.744)">
        <path d="M284.79,1607.02L282.926,1699.09L239.051,1699.22L238.475,1887.69L283.062,1887.69L282.557,1966.79L2174.82,1966.34L2173.6,1888.46L2219.34,1887.53L2220.19,1700.93L2173.74,1701.51L2173.74,1607.38L284.79,1607.02Z" style="fill:none;stroke:black;stroke-width:0.12px;stroke-linecap:round;stroke-linejoin:round;stroke-miterlimit:1.5;"/>
    </g>
    <g transform="matrix(1,0,0,1,-2.78453,-41.9957)">
        <path d="M284.79,1607.02L282.926,1699.09L239.051,1699.22L238.475,1887.69L283.062,1887.69L282.557,1966.79L2174.82,1966.34L2173.6,1888.46L2219.34,1887.53L2220.19,1700.93L2173.74,1701.51L2173.74,1607.38L284.79,1607.02Z" style="fill:none;stroke:black;stroke-width:0.12px;stroke-linecap:round;stroke-linejoin:round;stroke-miterlimit:1.5;"/>
    </g>
    <g transform="matrix(1,0,0,1.00922,510.008,603.867)">
        <rect x="175.695" y="2067.09" width="47.879" height="191.847" style="fill:none;stroke:black;stroke-width:0.12px;stroke-linecap:round;stroke-linejoin:round;stroke-miterlimit:1.5;"/>
    </g>
    <g transform="matrix(6.12323e-17,-1,-1.00922,-6.1797e-17,2892.6,3288.98)">
        <rect x="175.695" y="2067.09" width="47.879" height="191.847" style="fill:none;stroke:black;stroke-width:0.12px;stroke-linecap:round;stroke-linejoin:round;stroke-miterlimit:1.5;"/>
    </g>
    <g transform="matrix(1,0,0,1,954.787,900.959)">
        <path d="M755.716,1597.44L655.402,1596.77L612.148,1665.88L571.592,1646.87L335.501,2053.49L371.744,2075.94L332.171,2152.95L330.897,2263.51L1077.6,2270.07L1077.75,2155.08L1035.69,2082.81L1075.41,2055.61L837.654,1650.39L801.56,1670.89L755.716,1597.44Z" style="fill:none;stroke:black;stroke-width:0.04px;stroke-linecap:round;stroke-linejoin:round;stroke-miterlimit:1.5;"/>
    </g>
    <g transform="matrix(1,0,0,1.00922,1460.94,603.039)">
        <rect x="175.695" y="2067.09" width="47.879" height="191.847" style="fill:none;stroke:black;stroke-width:0.12px;stroke-linecap:round;stroke-linejoin:round;stroke-miterlimit:1.5;"/>
    </g>
    <g transform="matrix(6.12323e-17,-1,-1.00922,-6.1797e-17,3843.53,3288.16)">
        <rect x="175.695" y="2067.09" width="47.879" height="191.847" style="fill:none;stroke:black;stroke-width:0.12px;stroke-linecap:round;stroke-linejoin:round;stroke-miterlimit:1.5;"/>
    </g>
</svg>
